{"title":"Hall Pass (2011) DVDRip XviD-MAX","uid":6425530,"size":1325084401,"categoryP":"video","categoryS":"movies","magnet":"?xt=urn:btih:d6b256dd6a3a14311942e9f5b4b56946250e330b&amp;dn=Hall+Pass+%282011%29+DVDRip+XviD-MAX&amp;tr=udp%3A%2F%2Ftracker.openbittorrent.com%3A80&amp;tr=udp%3A%2F%2Fopen.demonii.com%3A1337&amp;tr=udp%3A%2F%2Ftracker.coppersurfer.tk%3A6969&amp;tr=udp%3A%2F%2Fexodus.desync.com%3A6969","seeders":62,"leechers":3,"uploader":"extremezone","files":-1,"time":1306451181,"description":" &lt;a href=&quot;http://leetleech.org/images/61869067469334967531.jpg&quot; rel=&quot;nofollow&quot; target=&quot;_NEW&quot;&gt;http://leetleech.org/images/61869067469334967531.jpg&lt;/a&gt;\n\nScreens:\n &lt;a href=&quot;\nhttp://leetleech.org/images/30979157174553670310.jpg&quot; rel=&quot;nofollow&quot; target=&quot;_NEW&quot;&gt;\nhttp://leetleech.org/images/30979157174553670310.jpg&lt;/a&gt;\n &lt;a href=&quot;\nhttp://leetleech.org/images/62677728715457184007.jpg&quot; rel=&quot;nofollow&quot; target=&quot;_NEW&quot;&gt;\nhttp://leetleech.org/images/62677728715457184007.jpg&lt;/a&gt;\n &lt;a href=&quot;\nhttp://leetleech.org/images/63933544537802108713.jpg&quot; rel=&quot;nofollow&quot; target=&quot;_NEW&quot;&gt;\nhttp://leetleech.org/images/63933544537802108713.jpg&lt;/a&gt;\n &lt;a href=&quot;\nhttp://leetleech.org/images/98277171616187587618.jpg&quot; rel=&quot;nofollow&quot; target=&quot;_NEW&quot;&gt;\nhttp://leetleech.org/images/98277171616187587618.jpg&lt;/a&gt;\n &lt;a href=&quot;\nhttp://leetleech.org/images/89433735621669442152.jpg&quot; rel=&quot;nofollow&quot; target=&quot;_NEW&quot;&gt;\nhttp://leetleech.org/images/89433735621669442152.jpg&lt;/a&gt;\n\nAlternative:\n &lt;a href=&quot;\nhttp://www.postimg.com/image/38000/photo-37273.jpg&quot; rel=&quot;nofollow&quot; target=&quot;_NEW&quot;&gt;\nhttp://www.postimg.com/image/38000/photo-37273.jpg&lt;/a&gt;\n &lt;a href=&quot;\nhttp://www.postimg.com/image/38000/photo-37274.jpg&quot; rel=&quot;nofollow&quot; target=&quot;_NEW&quot;&gt;\nhttp://www.postimg.com/image/38000/photo-37274.jpg&lt;/a&gt;\n &lt;a href=&quot;\nhttp://www.postimg.com/image/38000/photo-37275.jpg&quot; rel=&quot;nofollow&quot; target=&quot;_NEW&quot;&gt;\nhttp://www.postimg.com/image/38000/photo-37275.jpg&lt;/a&gt;\n &lt;a href=&quot;\nhttp://www.postimg.com/image/38000/photo-37276.jpg&quot; rel=&quot;nofollow&quot; target=&quot;_NEW&quot;&gt;\nhttp://www.postimg.com/image/38000/photo-37276.jpg&lt;/a&gt;\n &lt;a href=&quot;\nhttp://www.postimg.com/image/38000/photo-37277.jpg&quot; rel=&quot;nofollow&quot; target=&quot;_NEW&quot;&gt;\nhttp://www.postimg.com/image/38000/photo-37277.jpg&lt;/a&gt;\n\nScreenCaps:\n &lt;a href=&quot;\nhttp://www.postimg.com/image/38000/photo-37281.jpg&quot; rel=&quot;nofollow&quot; target=&quot;_NEW&quot;&gt;\nhttp://www.postimg.com/image/38000/photo-37281.jpg&lt;/a&gt;\n\nHall Pass (2011) DVDRip\nFormat                           : AVI\nFormat/Info                      : Audio Video Interleave\nFormat profile                   : OpenDML\nFile size                        : 1.22 GiB\nDuration                         : 1h 49mn\nOverall bit rate                 : 1 594 Kbps\nWriting application              : VirtualDubMod 1.5.10.2 (build 2542/release)\nWriting library                  : VirtualDubMod build 2542/release\nOriginal source form             : MAX TORRENTZ\nCopyright                        : SIGISMUNT\n\nVideo\nID                               : 0\nFormat                           : MPEG-4 Visual\nFormat profile                   : AdvancedSimple@L5\nFormat settings, BVOP            : Yes\nFormat settings, QPel            : No\nFormat settings, GMC             : No warppoints\nFormat settings, Matrix          : Default (H.263)\nCodec ID                         : XVID\nCodec ID/Hint                    : XviD\nDuration                         : 1h 49mn\nBit rate                         : 1 385 Kbps\nWidth                            : 640 pixels\nHeight                           : 272 pixels\nDisplay aspect ratio             : 2.35:1\nFrame rate                       : 23.976 fps\nResolution                       : 24 bits\nColorimetry                      : 4:2:0\nScan type                        : Progressive\nBits/(Pixel*Frame)               : 0.336\nStream size                      : 1.08 GiB (88%)\nWriting library                  : XviD 1.2.1 (UTC 2008-12-04)\n\nAudio\nID                               : 1\nFormat                           : MPEG Audio\nFormat version                   : Version 1\nFormat profile                   : Layer 3\nCodec ID                         : 55\nCodec ID/Hint                    : MP3\nDuration                         : 1h 45mn\nBit rate mode                    : Constant\nBit rate                         : 192 Kbps\nChannel(s)                       : 2 channels\nSampling rate                    : 48.0 KHz\nResolution                       : 16 bits\nStream size                      : 145 MiB (12%)\nAlignment                        : Aligned on interleaves\nInterleave, duration             : 25 ms (0.60 video frame)\nInterleave, preload duration     : 7008 ms\n &lt;a href=&quot;\nhttp://www.imdb.com/title/tt0480687/&quot; rel=&quot;nofollow&quot; target=&quot;_NEW&quot;&gt;\nhttp://www.imdb.com/title/tt0480687/&lt;/a&gt;\n \nSource: DVD (perfect a/v/sync quality , sample included)\nThis release is not seedbox supported , please seed it to the MAX\n\nHall Pass (2011) DVDRip XviD-MAX Torrent Free Download\n &lt;a href=&quot;\nhttp://thepiratebay.se/user/extremezone/0/7&quot; rel=&quot;nofollow&quot; target=&quot;_NEW&quot;&gt;\nhttp://thepiratebay.se/user/extremezone/0/7&lt;/a&gt;\n\nHow To Get Your Maxspeed (uTorrent)\n\nTorrent Client - Preferences - Bandwidth - Number of connections - Set aprox. 500 for each \nTorrent Client - Preferences - BiTorrent - Protocol Encryption - Forced\nBandwidth Allocation - High (Set download/upload limit - Unlimited)\nStop Other Active Torrents - Start downloading and wait for connections.\nEnjoy and Seed for at least 1:1 ratio. Don't forget to say thanks/leave reviews.\nBefore downloading you should check/google search sample &quot;release name&quot;&quot;sample&quot;.\nGreets to all actual/future p2p/scene QUALITY groups and affiliate websites.\nDon't trust IMDb robot or bad ratings,always watch some trailers first.\nIgnore stupid comments/fake/mislabeled/no-DVDrips/CAM/TS/RAR uploads.\nPlease spread this release/torrent to your friends/forums/etc.\nIf you need translation subs visit some subtitles sites.\nReport if you see online streaming or other spam links.\nRecommended movie player VLC PLAYER.","torrent":{"xt":"urn:btih:d6b256dd6a3a14311942e9f5b4b56946250e330b","amp;dn":"Hall+Pass+%282011%29+DVDRip+XviD-MAX","amp;tr":["udp%3A%2F%2Ftracker.openbittorrent.com%3A80","udp%3A%2F%2Fopen.demonii.com%3A1337","udp%3A%2F%2Ftracker.coppersurfer.tk%3A6969","udp%3A%2F%2Fexodus.desync.com%3A6969"],"infoHash":"d6b256dd6a3a14311942e9f5b4b56946250e330b","infoHashBuffer":{"type":"Buffer","data":[214,178,86,221,106,58,20,49,25,66,233,245,180,181,105,70,37,14,51,11]},"announce":[],"urlList":[]}}